<?xml version="1.0" encoding="UTF-8" standalone="no"?>
<svg xmlns:xlink="http://www.w3.org/1999/xlink" height="32.5px" width="22.75px" xmlns="http://www.w3.org/2000/svg">
  <g transform="matrix(1.0, 0.0, 0.0, 1.0, 10.95, 10.8)">
    <path d="M4.9 4.8 L5.55 5.4 8.3 10.4 10.25 14.95 10.8 16.95 6.15 13.15 4.5 12.2 -0.45 20.7 -0.8 19.35 -1.8 10.25 -1.35 6.95 -1.05 5.0 0.75 0.95 4.9 4.8" fill="#ffff66" fill-rule="evenodd" stroke="none"/>
    <path d="M6.85 -0.25 L9.95 -0.25 M-0.5 -7.05 L-0.5 -4.8 M3.45 -0.25 L6.85 -0.25 M-7.25 -0.25 L-9.95 -0.25 M-7.25 -0.25 L-3.8 -0.25 M-0.5 -7.05 L-0.5 -9.8" fill="none" stroke="#ff0000" stroke-linecap="round" stroke-linejoin="round" stroke-width="2.0"/>
    <path d="M6.85 -0.25 Q6.75 -3.0 4.75 -5.0 2.7 -7.05 -0.2 -7.05 L-0.5 -7.05 -0.75 -7.0 Q-3.3 -6.85 -5.2 -5.0 -7.15 -3.0 -7.25 -0.25 L-7.25 0.0 Q-7.25 2.9 -5.2 4.95 -3.55 6.6 -1.35 6.95 M6.85 -0.25 L6.85 0.0 Q6.85 2.8 4.9 4.8" fill="none" stroke="#ff0000" stroke-linecap="round" stroke-linejoin="round" stroke-width="2.0"/>
    <path d="M4.9 4.8 L5.55 5.4 8.3 10.4 10.25 14.95 10.8 16.95 6.15 13.15 4.5 12.2 -0.45 20.7 -0.8 19.35 -1.8 10.25 -1.35 6.95 -1.05 5.0 0.75 0.95 4.9 4.8" fill="none" stroke="#ffcc33" stroke-linecap="round" stroke-linejoin="round" stroke-width="2.0"/>
  </g>
</svg>
