<?xml version="1.0" encoding="UTF-8" standalone="no"?>
<svg xmlns:xlink="http://www.w3.org/1999/xlink" height="42.95px" width="72.0px" xmlns="http://www.w3.org/2000/svg">
  <g transform="matrix(1.0, 0.0, 0.0, 1.0, 21.65, 10.0)">
    <path d="M1.95 7.65 L8.45 -0.9 10.0 0.5 4.45 7.65 1.95 7.65" fill="#666666" fill-rule="evenodd" stroke="none"/>
    <path d="M1.15 7.65 L-10.0 -3.5 -1.0 -9.5 8.45 -0.9 1.95 7.65 1.15 7.65" fill="#00ffff" fill-rule="evenodd" stroke="none"/>
    <path d="M8.45 -0.9 L-1.0 -9.5 -10.0 -3.5 1.15 7.65 M8.45 -0.9 L10.0 0.5 4.45 7.65" fill="none" stroke="#999999" stroke-linecap="round" stroke-linejoin="round" stroke-width="1.0"/>
    <path d="M1.95 7.65 L8.45 -0.9 Z" fill="none" stroke="#999999" stroke-linecap="round" stroke-linejoin="round" stroke-width="1.0"/>
    <path d="M3.65 8.7 L50.35 8.7 50.35 32.95 -21.65 32.95 -21.65 8.7 2.2 8.7 3.65 8.7" fill="#333333" fill-rule="evenodd" stroke="none"/>
    <path d="M2.2 8.7 L1.65 8.15 1.6 8.1 1.95 7.65 4.45 7.65 3.65 8.7 2.2 8.7" fill="#666666" fill-rule="evenodd" stroke="none"/>
    <path d="M1.6 8.1 L1.15 7.65 1.95 7.65 1.6 8.1" fill="#00ffff" fill-rule="evenodd" stroke="none"/>
    <path d="M2.2 8.7 L1.65 8.15 M1.6 8.1 L1.15 7.65 M4.45 7.65 L3.65 8.7" fill="none" stroke="#999999" stroke-linecap="round" stroke-linejoin="round" stroke-width="1.0"/>
    <path d="M1.65 8.15 L1.6 8.1 1.95 7.65" fill="none" stroke="#999999" stroke-linecap="round" stroke-linejoin="round" stroke-width="1.0"/>
  </g>
</svg>
