<?xml version="1.0" encoding="UTF-8" standalone="no"?>
<svg xmlns:xlink="http://www.w3.org/1999/xlink" height="35.0px" width="81.0px" xmlns="http://www.w3.org/2000/svg">
  <g transform="matrix(1.0, 0.0, 0.0, 1.0, 32.7, 17.5)">
    <path d="M8.85 13.95 Q5.7 16.05 1.8 16.45 L2.4 15.65 -0.1 15.65 -0.9 15.65 -0.45 16.1 -0.4 16.15 -0.05 16.5 Q-5.0 16.5 -8.85 13.95 L8.85 13.95 M-13.2 -10.0 L-11.7 -11.7 Q-6.85 -16.5 0.0 -16.5 6.85 -16.5 11.65 -11.7 L13.15 -10.0 -13.2 -10.0" fill="#cccccc" fill-rule="evenodd" stroke="none"/>
    <path d="M13.15 -10.0 L39.3 -10.0 39.3 13.95 8.85 13.95 -8.85 13.95 -32.7 13.95 -32.7 -10.0 -13.2 -10.0 13.15 -10.0 M1.6 16.7 L48.3 16.7 48.3 17.0 -23.7 17.0 -23.7 16.7 0.15 16.7 1.6 16.7" fill="#333333" fill-rule="evenodd" stroke="none"/>
    <path d="M1.8 16.45 L1.6 16.7 0.15 16.7 -0.05 16.5 -0.4 16.15 -0.45 16.1 -0.1 15.65 2.4 15.65 1.8 16.45" fill="#666666" fill-rule="evenodd" stroke="none"/>
    <path d="M-0.45 16.1 L-0.9 15.65 -0.1 15.65 -0.45 16.1" fill="#00ffff" fill-rule="evenodd" stroke="none"/>
    <path d="M8.85 13.95 Q5.7 16.05 1.8 16.45 M-0.05 16.5 Q-5.0 16.5 -8.85 13.95 M-13.2 -10.0 L-11.7 -11.7 Q-6.85 -16.5 0.0 -16.5 6.85 -16.5 11.65 -11.7 L13.15 -10.0" fill="none" stroke="#999999" stroke-linecap="round" stroke-linejoin="round" stroke-width="2.0"/>
    <path d="M1.8 16.45 L1.6 16.7 M0.15 16.7 L-0.05 16.5 -0.4 16.15 M-0.45 16.1 L-0.9 15.65 M2.4 15.65 L1.8 16.45" fill="none" stroke="#999999" stroke-linecap="round" stroke-linejoin="round" stroke-width="1.0"/>
    <path d="M-0.4 16.15 L-0.45 16.1 -0.1 15.65" fill="none" stroke="#999999" stroke-linecap="round" stroke-linejoin="round" stroke-width="1.0"/>
  </g>
</svg>
