<?xml version="1.0" encoding="UTF-8" standalone="no"?>
<svg xmlns:xlink="http://www.w3.org/1999/xlink" height="43.75px" width="85.6px" xmlns="http://www.w3.org/2000/svg">
  <g transform="matrix(1.0, 0.0, 0.0, 1.0, 21.0, 20.5)">
    <path d="M16.0 -12.5 L-0.75 -12.5 -7.35 -12.5 -7.35 11.75 13.85 11.75 13.85 13.65 8.5 19.0 -6.5 20.0 -20.5 8.0 -20.5 -4.0 -3.5 -20.0 8.5 -20.0 16.0 -12.5 M-0.75 -12.5 L-0.75 -12.85 -0.75 -12.5" fill="#cccccc" fill-rule="evenodd" stroke="none"/>
    <path d="M16.45 -12.5 L17.9 -12.5 64.6 -12.5 64.6 11.75 13.9 11.75 13.9 23.25 13.85 23.25 13.85 13.65 13.85 11.75 -7.35 11.75 -7.35 -12.5 -0.75 -12.5 16.0 -12.5 16.45 -12.5" fill="#333333" fill-rule="evenodd" stroke="none"/>
    <path d="M17.9 -12.5 L16.45 -12.5 16.1 -12.85 18.15 -12.85 17.9 -12.5" fill="#666666" fill-rule="evenodd" stroke="none"/>
    <path d="M17.9 -12.5 L18.15 -12.85 M16.1 -12.85 L16.45 -12.5 M13.85 13.65 L8.5 19.0 -6.5 20.0 -20.5 8.0 -20.5 -4.0 -3.5 -20.0 8.5 -20.0 16.0 -12.5 M-0.75 -12.85 L-0.75 -12.5" fill="none" stroke="#999999" stroke-linecap="round" stroke-linejoin="round" stroke-width="1.0"/>
  </g>
</svg>
