<?xml version="1.0" encoding="UTF-8" standalone="no"?>
<svg xmlns:xlink="http://www.w3.org/1999/xlink" height="43.75px" width="85.85px" xmlns="http://www.w3.org/2000/svg">
  <g transform="matrix(1.0, 0.0, 0.0, 1.0, 21.0, 20.5)">
    <path d="M-7.15 19.45 L-20.5 8.0 -20.5 -4.0 -3.5 -20.0 8.5 -20.0 20.5 -8.0 20.5 -1.85 13.1 -1.85 13.1 -1.0 -0.5 -1.0 -7.15 -1.0 -7.15 13.65 -7.15 19.45 M-7.9 14.4 L-7.15 13.65 -7.9 14.4 M-0.5 -1.85 L-0.5 -1.0 -0.5 -1.85" fill="#cccccc" fill-rule="evenodd" stroke="none"/>
    <path d="M16.7 -1.0 L16.15 -1.55 18.55 -1.55 18.15 -1.0 16.7 -1.0" fill="#666666" fill-rule="evenodd" stroke="none"/>
    <path d="M13.1 -1.0 L16.7 -1.0 18.15 -1.0 64.85 -1.0 64.85 23.25 -7.15 23.25 -7.15 19.45 -7.15 13.65 -7.15 -1.0 -0.5 -1.0 13.1 -1.0" fill="#333333" fill-rule="evenodd" stroke="none"/>
    <path d="M16.7 -1.0 L16.15 -1.55 M18.55 -1.55 L18.15 -1.0 M-7.15 19.45 L-20.5 8.0 -20.5 -4.0 -3.5 -20.0 8.5 -20.0 20.5 -8.0 20.5 -1.85 M-0.5 -1.0 L-0.5 -1.85 M-7.15 13.65 L-7.9 14.4" fill="none" stroke="#999999" stroke-linecap="round" stroke-linejoin="round" stroke-width="1.0"/>
  </g>
</svg>
