<?xml version="1.0" encoding="UTF-8" standalone="no"?>
<svg xmlns:xlink="http://www.w3.org/1999/xlink" height="5.75px" width="98.95px" xmlns="http://www.w3.org/2000/svg">
  <g transform="matrix(1.0, 0.0, 0.0, 1.0, 0.15, 4.0)">
    <path d="M98.3 -0.15 L98.8 -0.15" fill="none" stroke="#33ff33" stroke-linecap="round" stroke-linejoin="round" stroke-width="0.05"/>
    <path d="M98.3 -0.15 L98.1 -0.15 M9.2 0.2 L11.15 0.2 M49.2 0.65 L98.1 0.7 M24.65 -0.1 L97.95 -1.7 M0.25 0.2 L6.75 0.2 9.2 0.2 M0.2 0.2 L0.25 0.2" fill="none" stroke="#339900" stroke-linecap="round" stroke-linejoin="round" stroke-width="0.05"/>
    <path d="M98.1 -0.15 L24.65 -0.1 8.05 0.15 9.2 0.2 M11.15 0.2 L49.2 0.65 98.25 1.75 M6.75 0.2 L8.05 0.15 3.45 0.1 0.85 0.2 0.8 0.2 0.25 0.2 M3.45 0.1 L98.5 -4.0 M0.2 0.2 L-0.15 0.2 0.8 0.2" fill="none" stroke="#33ff00" stroke-linecap="round" stroke-linejoin="round" stroke-width="0.05"/>
  </g>
</svg>
