<?xml version="1.0" encoding="UTF-8" standalone="no"?>
<svg xmlns:xlink="http://www.w3.org/1999/xlink" height="1.0px" width="99.0px" xmlns="http://www.w3.org/2000/svg">
  <g transform="matrix(1.0, 0.0, 0.0, 1.0, -1.0, 0.5)">
    <path d="M1.0 -0.5 L1.0 0.5 M2.5 -0.5 L2.5 0.5 M4.0 -0.5 L4.0 0.5 M5.5 -0.5 L5.5 0.5 M7.0 -0.5 L7.0 0.5 M8.5 -0.5 L8.5 0.5 M10.0 -0.5 L10.0 0.5 M11.5 -0.5 L11.5 0.5 M13.0 -0.5 L13.0 0.5 M14.5 -0.5 L14.5 0.5 M16.0 -0.5 L16.0 0.5 M17.5 -0.5 L17.5 0.5 M19.0 -0.5 L19.0 0.5 M20.5 -0.5 L20.5 0.5 M22.0 -0.5 L22.0 0.5 M23.5 -0.5 L23.5 0.5 M25.0 -0.5 L25.0 0.5 M26.5 -0.5 L26.5 0.5 M28.0 -0.5 L28.0 0.5 M29.5 -0.5 L29.5 0.5 M31.0 -0.5 L31.0 0.5 M32.5 -0.5 L32.5 0.5 M34.0 -0.5 L34.0 0.5 M35.5 -0.5 L35.5 0.5 M37.0 -0.5 L37.0 0.5 M38.5 -0.5 L38.5 0.5 M40.0 -0.5 L40.0 0.5 M41.5 -0.5 L41.5 0.5 M43.0 -0.5 L43.0 0.5 M44.5 -0.5 L44.5 0.5 M46.0 -0.5 L46.0 0.5 M47.5 -0.5 L47.5 0.5 M49.0 -0.5 L49.0 0.5 M50.5 -0.5 L50.5 0.5 M52.0 -0.5 L52.0 0.5 M53.5 -0.5 L53.5 0.5 M55.0 -0.5 L55.0 0.5 M56.5 -0.5 L56.5 0.5 M58.0 -0.5 L58.0 0.5 M59.5 -0.5 L59.5 0.5 M61.0 -0.5 L61.0 0.5 M62.5 -0.5 L62.5 0.5 M64.0 -0.5 L64.0 0.5 M65.5 -0.5 L65.5 0.5 M67.0 -0.5 L67.0 0.5 M68.5 -0.5 L68.5 0.5 M70.0 -0.5 L70.0 0.5 M71.5 -0.5 L71.5 0.5 M73.0 -0.5 L73.0 0.5 M74.5 -0.5 L74.5 0.5 M76.0 -0.5 L76.0 0.5 M77.5 -0.5 L77.5 0.5 M79.0 -0.5 L79.0 0.5 M80.5 -0.5 L80.5 0.5 M82.0 -0.5 L82.0 0.5 M83.5 -0.5 L83.5 0.5 M85.0 -0.5 L85.0 0.5 M86.5 -0.5 L86.5 0.5 M88.0 -0.5 L88.0 0.5 M89.5 -0.5 L89.5 0.5 M91.0 -0.5 L91.0 0.5 M92.5 -0.5 L92.5 0.5 M94.0 -0.5 L94.0 0.5 M95.5 -0.5 L95.5 0.5 M97.0 -0.5 L97.0 0.5 M98.5 -0.5 L98.5 0.5 M100.0 -0.5 L100.0 0.5" fill="none" stroke="#ff9933" stroke-linecap="round" stroke-linejoin="round" stroke-width="0.05"/>
  </g>
</svg>
