<?xml version="1.0" encoding="UTF-8" standalone="no"?>
<svg xmlns:xlink="http://www.w3.org/1999/xlink" height="1.0px" width="100.0px" xmlns="http://www.w3.org/2000/svg">
  <g transform="matrix(1.0, 0.0, 0.0, 1.0, 0.0, 0.5)">
    <path d="M100.0 0.5 L100.0 -0.5 M96.0 0.5 L96.0 -0.5 M92.0 0.5 L92.0 -0.5 M88.0 0.5 L88.0 -0.5 M84.0 0.5 L84.0 -0.5 M80.0 0.5 L80.0 -0.5 M76.0 0.5 L76.0 -0.5 M72.0 0.5 L72.0 -0.5 M68.0 0.5 L68.0 -0.5 M64.0 0.5 L64.0 -0.5 M60.0 0.5 L60.0 -0.5 M56.0 0.5 L56.0 -0.5 M52.0 0.5 L52.0 -0.5 M48.0 0.5 L48.0 -0.5 M44.0 0.5 L44.0 -0.5 M40.0 0.5 L40.0 -0.5 M36.0 0.5 L36.0 -0.5 M32.0 0.5 L32.0 -0.5 M28.0 0.5 L28.0 -0.5 M24.0 0.5 L24.0 -0.5 M20.0 0.5 L20.0 -0.5 M16.0 0.5 L16.0 -0.5 M12.0 0.5 L12.0 -0.5 M8.0 0.5 L8.0 -0.5 M4.0 0.5 L4.0 -0.5 M0.0 0.5 L0.0 -0.5" fill="none" stroke="#ffff33" stroke-linecap="round" stroke-linejoin="round" stroke-width="0.05"/>
  </g>
</svg>
