<?xml version="1.0" encoding="UTF-8" standalone="no"?>
<svg xmlns:xlink="http://www.w3.org/1999/xlink" height="3.25px" width="101.0px" xmlns="http://www.w3.org/2000/svg">
  <g transform="matrix(1.0, 0.0, 0.0, 1.0, 0.5, 1.65)">
    <path d="M0.0 0.0 L100.0 0.0" fill="none" stroke="#ff0000" stroke-linecap="round" stroke-linejoin="round" stroke-width="1.0"/>
    <path d="M7.1 -0.8 Q7.6 -1.15 8.1 -0.6 8.55 -0.1 7.9 0.15 7.25 0.35 6.9 -0.05 6.55 -0.5 7.1 -0.8 M5.5 -0.15 Q5.85 0.5 5.4 0.75 4.9 0.95 4.5 0.45 4.1 0.0 4.65 -0.4 5.15 -0.85 5.5 -0.15 M3.4 -0.35 Q3.7 0.1 3.3 0.4 2.85 0.65 2.35 0.05 1.8 -0.55 2.45 -0.7 3.1 -0.85 3.4 -0.35 M1.0 -0.55 Q1.35 0.15 0.85 0.65 0.35 1.15 -0.15 0.45 -0.65 -0.25 0.0 -0.75 0.65 -1.25 1.0 -0.55 M14.8 -0.05 Q15.2 0.85 14.6 1.1 14.0 1.35 13.5 0.75 12.95 0.15 13.65 -0.4 14.3 -0.95 14.8 -0.05 M17.0 -0.8 Q17.7 0.0 16.7 0.35 15.7 0.7 15.15 0.05 14.55 -0.6 15.45 -1.1 16.25 -1.6 17.0 -0.8 M18.8 -0.35 Q19.1 0.3 18.65 0.8 18.15 1.25 17.7 0.6 17.2 -0.1 17.85 -0.55 18.45 -1.05 18.8 -0.35 M10.4 -0.65 Q10.7 0.0 10.25 0.5 9.75 0.95 9.3 0.3 8.8 -0.4 9.45 -0.85 10.05 -1.35 10.4 -0.65 M39.0 -0.35 Q39.25 0.05 38.9 0.3 38.55 0.5 38.15 0.0 37.7 -0.5 38.25 -0.6 38.75 -0.75 39.0 -0.35 M37.35 -0.7 Q37.65 -0.05 37.2 0.45 36.7 0.9 36.25 0.25 35.75 -0.45 36.4 -0.9 37.0 -1.4 37.35 -0.7 M32.2 -0.45 Q32.6 0.35 32.05 0.6 31.45 0.85 31.0 0.3 30.5 -0.3 31.15 -0.8 31.75 -1.3 32.2 -0.45 M30.55 -0.25 Q30.9 0.4 30.4 0.75 29.8 1.05 29.1 0.3 28.4 -0.5 29.3 -0.7 30.15 -0.95 30.55 -0.25 M28.15 -0.2 Q28.5 0.5 28.0 1.0 27.5 1.5 27.0 0.8 26.5 0.1 27.15 -0.4 27.8 -0.9 28.15 -0.2 M25.9 -0.25 Q26.4 0.3 25.7 0.6 24.95 0.85 24.6 0.35 24.15 -0.15 24.8 -0.45 25.4 -0.8 25.9 -0.25 M47.2 -0.75 Q47.7 -0.9 47.95 -0.5 48.2 -0.1 47.85 0.15 47.5 0.35 47.1 -0.15 46.65 -0.65 47.2 -0.75 M46.35 -0.35 Q46.75 0.45 46.2 1.0 45.65 1.5 45.1 0.75 44.5 -0.05 45.25 -0.6 46.0 -1.15 46.35 -0.35 M42.25 -0.45 L42.45 0.3 Q42.5 0.05 42.85 -0.1 43.5 -0.45 44.05 0.15 44.6 0.75 43.85 1.05 43.05 1.3 42.6 0.8 L42.45 0.45 42.05 0.9 Q41.3 1.2 40.7 0.45 40.1 -0.25 40.9 -0.85 41.7 -1.5 42.25 -0.45 M59.7 -0.7 Q60.15 0.2 59.55 0.5 58.9 0.75 58.35 0.15 L58.35 0.1 Q58.6 0.7 58.05 1.05 57.4 1.45 56.65 0.55 55.85 -0.4 56.8 -0.6 57.7 -0.85 58.15 -0.2 58.0 -0.7 58.55 -1.1 59.25 -1.65 59.7 -0.7 M54.95 -0.5 Q55.25 0.15 54.8 0.65 54.3 1.1 53.85 0.45 53.35 -0.25 54.0 -0.7 54.6 -1.2 54.95 -0.5 M53.3 -0.4 Q53.8 0.15 53.15 0.4 52.45 0.65 52.05 0.2 51.65 -0.3 52.25 -0.6 52.8 -0.95 53.3 -0.4 M80.3 -0.15 Q80.8 0.4 80.15 0.65 79.45 0.9 79.05 0.45 78.65 -0.05 79.25 -0.35 79.8 -0.7 80.3 -0.15 M78.1 -0.95 Q78.65 0.15 77.9 0.5 77.15 0.8 76.5 0.05 75.85 -0.7 76.7 -1.35 77.55 -2.05 78.1 -0.95 M76.1 -0.1 Q76.5 0.5 75.95 0.85 75.4 1.2 74.75 0.45 74.1 -0.35 74.9 -0.55 75.75 -0.75 76.1 -0.1 M72.9 -0.9 Q73.35 -1.25 73.6 -0.75 73.8 -0.3 73.5 0.05 73.15 0.4 72.8 -0.1 72.45 -0.6 72.9 -0.9 M68.8 -0.25 Q69.15 0.5 68.65 0.75 68.1 0.95 67.7 0.45 67.25 -0.1 67.85 -0.55 68.4 -1.0 68.8 -0.25 M64.9 -0.3 Q65.3 0.55 64.75 1.15 64.15 1.7 63.55 0.9 62.9 0.05 63.7 -0.55 64.5 -1.15 64.9 -0.3 M61.85 0.0 Q62.35 0.55 61.6 0.85 60.85 1.1 60.45 0.65 60.0 0.1 60.65 -0.25 61.3 -0.6 61.85 0.0 M82.45 -0.6 Q82.8 0.15 82.3 0.7 81.75 1.2 81.2 0.5 80.65 -0.3 81.4 -0.8 82.1 -1.35 82.45 -0.6 M84.8 -0.25 Q85.2 0.35 84.65 0.7 84.1 1.05 83.45 0.3 82.8 -0.5 83.6 -0.7 84.45 -0.9 84.8 -0.25 M87.0 -0.25 Q87.35 0.45 86.85 0.65 86.35 0.85 85.95 0.4 85.5 -0.15 86.05 -0.55 86.6 -1.0 87.0 -0.25 M89.4 -0.25 Q89.9 0.3 89.2 0.6 88.45 0.85 88.1 0.35 87.65 -0.15 88.3 -0.45 88.9 -0.8 89.4 -0.25 M91.65 -0.4 Q91.95 0.25 91.5 0.75 91.0 1.2 90.55 0.55 90.05 -0.15 90.7 -0.6 91.3 -1.1 91.65 -0.4 M94.45 -0.65 Q94.85 -0.05 94.3 0.3 93.75 0.65 93.1 -0.1 92.45 -0.9 93.25 -1.1 94.1 -1.3 94.45 -0.65 M95.95 -0.3 Q96.3 0.35 95.85 0.6 95.35 0.8 94.95 0.3 94.55 -0.15 95.1 -0.55 95.6 -1.0 95.95 -0.3 M96.8 0.7 Q96.35 0.15 97.0 -0.2 97.65 -0.55 98.2 0.05 98.7 0.6 97.95 0.9 97.2 1.15 96.8 0.7 M99.15 0.85 Q98.75 0.3 99.25 -0.1 99.75 -0.45 100.0 0.1 100.3 0.65 99.9 1.0 99.55 1.4 99.15 0.85 M70.95 0.8 Q70.3 1.0 69.95 0.6 69.6 0.15 70.15 -0.15 70.65 -0.5 71.15 0.05 71.6 0.55 70.95 0.8 M65.5 0.85 Q64.55 -0.25 65.7 -0.5 66.85 -0.8 67.4 0.1 67.9 1.0 67.15 1.45 66.4 1.9 65.5 0.85 M50.65 0.6 Q50.35 0.7 50.1 0.4 49.8 0.1 50.2 -0.15 50.5 -0.45 50.75 0.0 50.95 0.45 50.65 0.6 M33.5 0.75 Q33.05 0.25 33.7 -0.05 34.3 -0.4 34.8 0.15 35.3 0.7 34.6 1.0 33.85 1.25 33.5 0.75 M20.25 0.8 Q19.6 0.0 20.4 -0.2 21.25 -0.4 21.6 0.25 22.0 0.85 21.45 1.2 20.9 1.55 20.25 0.8 M22.75 0.6 Q22.4 0.2 22.85 -0.15 23.3 -0.5 23.6 0.1 23.9 0.65 23.5 0.85 23.05 1.0 22.75 0.6 M11.4 0.55 Q10.75 -0.2 11.55 -0.35 12.3 -0.55 12.7 0.05 13.05 0.65 12.55 0.95 12.0 1.3 11.4 0.55" fill="#ff6600" fill-rule="evenodd" stroke="none"/>
  </g>
</svg>
