<?xml version="1.0" encoding="UTF-8" standalone="no"?>
<svg xmlns:xlink="http://www.w3.org/1999/xlink" height="41.9px" width="72.0px" xmlns="http://www.w3.org/2000/svg">
  <g transform="matrix(1.0, 0.0, 0.0, 1.0, 35.6, 10.0)">
    <path d="M0.4 -7.35 L2.5 -9.5 9.5 0.5 7.7 2.15 0.4 -7.35" fill="#cccccc" fill-rule="evenodd" stroke="none"/>
    <path d="M7.7 2.15 L1.55 7.65 0.9 7.65 -2.85 7.65 -9.5 2.5 0.4 -7.35 7.7 2.15" fill="#33ffff" fill-rule="evenodd" stroke="none"/>
    <path d="M1.55 7.65 L1.65 7.65 36.4 7.65 36.4 31.9 -35.6 31.9 -35.6 7.65 -2.85 7.65 0.9 7.65 1.55 7.65" fill="#333333" fill-rule="evenodd" stroke="none"/>
    <path d="M0.4 -7.35 L2.5 -9.5 9.5 0.5 7.7 2.15 1.55 7.65 M-2.85 7.65 L-9.5 2.5 0.4 -7.35" fill="none" stroke="#666666" stroke-linecap="round" stroke-linejoin="round" stroke-width="1.0"/>
    <path d="M1.55 7.65 L1.65 7.65 M0.4 -7.35 L7.7 2.15 M0.9 7.65 L1.55 7.65" fill="none" stroke="#666666" stroke-linecap="round" stroke-linejoin="round" stroke-width="1.0"/>
  </g>
</svg>
