<?xml version="1.0" encoding="UTF-8" standalone="no"?>
<svg xmlns:xlink="http://www.w3.org/1999/xlink" height="35.0px" width="35.0px" xmlns="http://www.w3.org/2000/svg">
  <g transform="matrix(1.0, 0.0, 0.0, 1.0, 17.5, 17.5)">
    <path d="M11.65 -11.7 Q16.5 -6.85 16.5 0.0 16.5 6.85 11.65 11.65 6.85 16.5 0.0 16.5 -6.85 16.5 -11.7 11.65 -16.5 6.85 -16.5 0.0 -16.5 -6.85 -11.7 -11.7 -6.85 -16.5 0.0 -16.5 6.85 -16.5 11.65 -11.7" fill="#cccccc" fill-rule="evenodd" stroke="none"/>
    <path d="M11.65 -11.7 Q16.5 -6.85 16.5 0.0 16.5 6.85 11.65 11.65 6.85 16.5 0.0 16.5 -6.85 16.5 -11.7 11.65 -16.5 6.85 -16.5 0.0 -16.5 -6.85 -11.7 -11.7 -6.85 -16.5 0.0 -16.5 6.85 -16.5 11.65 -11.7 Z" fill="none" stroke="#999999" stroke-linecap="round" stroke-linejoin="round" stroke-width="2.0"/>
  </g>
</svg>
