<?xml version="1.0" encoding="UTF-8" standalone="no"?>
<svg xmlns:xlink="http://www.w3.org/1999/xlink" height="42.05px" width="76.35px" xmlns="http://www.w3.org/2000/svg">
  <g transform="matrix(1.0, 0.0, 0.0, 1.0, 22.75, 21.0)">
    <path d="M-18.4 -16.5 L-18.4 -9.8 -22.25 -13.7 -18.4 -16.5 M-1.6 7.15 L14.75 7.15 22.25 14.65 11.7 20.55 -1.6 7.15 M-9.4 -17.1 L-17.6 -17.1 -12.8 -20.5 -9.4 -17.1" fill="#999999" fill-rule="evenodd" stroke="none"/>
    <path d="M-18.4 -9.8 L-18.4 -16.5 -18.4 -17.1 -17.6 -17.1 -9.4 -17.1 53.6 -17.1 53.6 7.15 14.75 7.15 -1.6 7.15 -18.4 7.15 -18.4 -9.8" fill="#333333" fill-rule="evenodd" stroke="none"/>
    <path d="M-18.4 -16.5 L-22.25 -13.7 -18.4 -9.8 M-9.4 -17.1 L-12.8 -20.5 -17.6 -17.1 M14.75 7.15 L22.25 14.65 11.7 20.55 -1.6 7.15" fill="none" stroke="#cccccc" stroke-linecap="round" stroke-linejoin="round" stroke-width="1.0"/>
  </g>
</svg>
