<?xml version="1.0" encoding="UTF-8" standalone="no"?>
<svg xmlns:xlink="http://www.w3.org/1999/xlink" height="3.25px" width="101.6px" xmlns="http://www.w3.org/2000/svg">
  <g transform="matrix(1.0, 0.0, 0.0, 1.0, 1.05, 1.65)">
    <path d="M100.05 0.0 L0.0 0.0" fill="none" stroke="#ff6600" stroke-linecap="round" stroke-linejoin="round" stroke-width="1.0"/>
    <path d="M5.0 -0.3 Q5.35 0.35 4.9 0.6 4.4 0.8 4.0 0.3 3.6 -0.15 4.15 -0.55 4.65 -1.0 5.0 -0.3 M6.7 -1.1 Q7.55 -1.3 7.9 -0.65 8.3 -0.05 7.75 0.3 7.2 0.65 6.55 -0.1 5.9 -0.9 6.7 -1.1 M9.5 -0.4 Q9.8 0.25 9.35 0.75 8.85 1.2 8.4 0.55 7.9 -0.15 8.55 -0.6 9.15 -1.1 9.5 -0.4 M11.85 -0.25 Q12.35 0.3 11.65 0.6 10.9 0.85 10.55 0.35 10.1 -0.15 10.75 -0.45 11.35 -0.8 11.85 -0.25 M14.05 -0.25 Q14.4 0.45 13.9 0.65 13.4 0.85 13.0 0.4 12.55 -0.15 13.1 -0.55 13.65 -1.0 14.05 -0.25 M16.45 -0.25 Q16.85 0.35 16.3 0.7 15.75 1.05 15.1 0.3 14.45 -0.5 15.25 -0.7 16.1 -0.9 16.45 -0.25 M18.5 -0.6 Q18.85 0.15 18.35 0.7 17.8 1.2 17.25 0.5 16.7 -0.3 17.45 -0.8 18.15 -1.35 18.5 -0.6 M23.15 -0.95 Q23.7 0.15 22.95 0.5 22.2 0.8 21.55 0.05 20.9 -0.7 21.75 -1.35 22.6 -2.05 23.15 -0.95 M25.75 -0.1 Q26.15 0.5 25.6 0.85 25.05 1.2 24.4 0.45 23.75 -0.35 24.55 -0.55 25.4 -0.75 25.75 -0.1 M27.15 -0.9 Q27.6 -1.25 27.85 -0.75 28.05 -0.3 27.75 0.05 27.4 0.4 27.05 -0.1 26.7 -0.6 27.15 -0.9 M32.25 -0.25 Q32.6 0.5 32.1 0.75 31.55 0.95 31.15 0.45 30.7 -0.1 31.3 -0.55 31.85 -1.0 32.25 -0.25 M37.35 -0.3 L37.4 -0.15 37.5 -0.25 Q38.15 -0.6 38.7 0.0 39.2 0.55 38.45 0.85 L37.45 0.75 37.2 1.15 Q36.6 1.7 36.0 0.9 35.35 0.05 36.15 -0.55 36.95 -1.15 37.35 -0.3 M20.75 -0.15 Q21.25 0.4 20.6 0.65 19.9 0.9 19.5 0.45 19.1 -0.05 19.7 -0.35 20.25 -0.7 20.75 -0.15 M44.3 -0.1 Q44.25 -0.45 44.65 -0.7 45.25 -1.2 45.6 -0.5 45.9 0.15 45.45 0.65 44.95 1.1 44.5 0.45 L44.45 0.4 44.1 1.05 Q43.45 1.45 42.7 0.55 41.9 -0.4 42.85 -0.6 43.85 -0.85 44.3 -0.1 M48.55 -0.4 Q49.05 0.15 48.4 0.4 47.7 0.65 47.3 0.2 46.9 -0.3 47.5 -0.6 48.05 -0.95 48.55 -0.4 M51.25 -0.75 Q51.75 -0.9 52.0 -0.5 52.25 -0.1 51.9 0.15 51.55 0.35 51.15 -0.15 50.7 -0.65 51.25 -0.75 M54.9 -0.35 Q55.3 0.45 54.75 1.0 54.2 1.5 53.65 0.75 53.05 -0.05 53.8 -0.6 54.55 -1.15 54.9 -0.35 M60.0 -0.45 Q60.5 0.55 59.8 0.9 59.05 1.2 58.45 0.45 57.85 -0.25 58.65 -0.85 59.45 -1.5 60.0 -0.45 M75.35 -0.25 Q75.85 0.3 75.15 0.6 74.4 0.85 74.05 0.35 73.6 -0.15 74.25 -0.45 74.85 -0.8 75.35 -0.25 M73.0 -0.2 Q73.35 0.5 72.85 1.0 72.35 1.5 71.85 0.8 71.35 0.1 72.0 -0.4 72.65 -0.9 73.0 -0.2 M71.0 -0.25 Q71.35 0.4 70.85 0.75 70.25 1.05 69.55 0.3 68.85 -0.5 69.75 -0.7 70.6 -0.95 71.0 -0.25 M68.05 -0.45 Q68.45 0.35 67.9 0.6 67.3 0.85 66.85 0.3 66.35 -0.3 67.0 -0.8 67.6 -1.3 68.05 -0.45 M64.1 -0.7 Q64.4 -0.05 63.95 0.45 63.45 0.9 63.0 0.25 62.5 -0.45 63.15 -0.9 63.75 -1.4 64.1 -0.7 M61.25 -0.35 Q61.5 0.05 61.15 0.3 60.8 0.5 60.4 0.0 59.95 -0.5 60.5 -0.6 61.0 -0.75 61.25 -0.35 M41.15 -0.7 Q41.6 0.2 41.0 0.5 40.35 0.75 39.8 0.15 39.25 -0.55 40.0 -1.1 40.7 -1.65 41.15 -0.7 M99.85 -0.55 Q100.2 0.15 99.7 0.65 99.2 1.15 98.7 0.45 98.2 -0.25 98.85 -0.75 99.5 -1.25 99.85 -0.55 M97.65 -0.35 Q97.95 0.1 97.55 0.4 97.1 0.65 96.6 0.05 96.05 -0.55 96.7 -0.7 97.35 -0.85 97.65 -0.35 M95.15 -0.15 Q95.5 0.5 95.05 0.75 94.55 0.95 94.15 0.45 93.75 0.0 94.3 -0.4 94.8 -0.85 95.15 -0.15 M93.25 -0.6 Q93.7 -0.1 93.05 0.15 92.4 0.35 92.05 -0.05 91.7 -0.5 92.25 -0.8 92.75 -1.15 93.25 -0.6 M90.95 -0.65 Q91.25 0.0 90.8 0.5 90.3 0.95 89.85 0.3 89.35 -0.4 90.0 -0.85 90.6 -1.35 90.95 -0.65 M86.45 -0.05 Q86.85 0.85 86.25 1.1 85.65 1.35 85.15 0.75 84.6 0.15 85.3 -0.4 85.95 -0.95 86.45 -0.05 M84.05 -0.8 Q84.75 0.0 83.75 0.35 82.75 0.7 82.2 0.05 81.6 -0.6 82.5 -1.1 83.3 -1.6 84.05 -0.8 M81.45 -0.35 Q81.75 0.3 81.3 0.8 80.8 1.25 80.35 0.6 79.85 -0.1 80.5 -0.55 81.1 -1.05 81.45 -0.35 M87.45 0.55 Q86.8 -0.2 87.6 -0.35 88.35 -0.55 88.75 0.05 89.1 0.65 88.6 0.95 88.05 1.3 87.45 0.55 M78.5 0.8 Q77.85 0.0 78.65 -0.2 79.5 -0.4 79.85 0.25 80.25 0.85 79.7 1.2 79.15 1.55 78.5 0.8 M77.35 0.85 Q76.9 1.0 76.6 0.6 76.25 0.2 76.7 -0.15 77.15 -0.5 77.45 0.1 77.75 0.65 77.35 0.85 M65.95 1.0 Q65.2 1.25 64.85 0.75 64.4 0.25 65.05 -0.05 65.65 -0.4 66.15 0.15 66.65 0.7 65.95 1.0 M55.75 0.8 Q55.3 0.25 56.0 -0.1 56.65 -0.45 57.2 0.15 57.75 0.75 57.0 1.05 56.2 1.3 55.75 0.8 M49.75 0.4 Q49.45 0.1 49.85 -0.15 50.15 -0.45 50.4 0.0 50.6 0.45 50.3 0.6 50.0 0.7 49.75 0.4 M35.2 1.45 Q34.45 1.9 33.55 0.85 32.6 -0.25 33.75 -0.5 34.9 -0.8 35.45 0.1 35.95 1.0 35.2 1.45 M29.8 0.8 Q29.15 1.0 28.8 0.6 28.45 0.15 29.0 -0.15 29.5 -0.5 30.0 0.05 30.45 0.55 29.8 0.8 M2.5 0.9 Q1.75 1.15 1.35 0.7 0.9 0.15 1.55 -0.2 2.2 -0.55 2.75 0.05 3.25 0.6 2.5 0.9 M-0.85 0.85 Q-1.25 0.3 -0.75 -0.1 -0.25 -0.45 0.0 0.1 0.3 0.65 -0.1 1.0 -0.45 1.4 -0.85 0.85" fill="#ff0000" fill-rule="evenodd" stroke="none"/>
  </g>
</svg>
